<svg width="64" height="39" viewBox="0 0 64 39" fill="none" xmlns="http://www.w3.org/2000/svg">
<g clip-path="url(#clip0_5_92)">
<path d="M18.1894 14.3211C18.1894 15.1 18.2736 15.7316 18.421 16.1947C18.5894 16.6579 18.8 17.1632 19.0947 17.7105C19.2 17.8789 19.2421 18.0474 19.2421 18.1947C19.2421 18.4053 19.1158 18.6158 18.8421 18.8263L17.5158 19.7105C17.3263 19.8368 17.1368 19.9 16.9684 19.9C16.7579 19.9 16.5473 19.7947 16.3368 19.6053C16.0421 19.2895 15.7894 18.9526 15.5789 18.6158C15.3684 18.2579 15.1579 17.8579 14.9263 17.3737C13.2842 19.3105 11.221 20.2789 8.7368 20.2789C6.96838 20.2789 5.55786 19.7737 4.52628 18.7632C3.4947 17.7526 2.96838 16.4053 2.96838 14.7211C2.96838 12.9316 3.59996 11.4789 4.88417 10.3842C6.16838 9.28947 7.87365 8.74211 10.0421 8.74211C10.7579 8.74211 11.4947 8.80526 12.2736 8.91053C13.0526 9.01579 13.8526 9.18421 14.6947 9.37368V7.83684C14.6947 6.23684 14.3579 5.12105 13.7052 4.46842C13.0315 3.81579 11.8947 3.5 10.2736 3.5C9.5368 3.5 8.77891 3.58421 7.99996 3.77368C7.22102 3.96316 6.46312 4.19474 5.72628 4.48947C5.38944 4.63684 5.1368 4.72105 4.98944 4.76316C4.84207 4.80526 4.7368 4.82632 4.65259 4.82632C4.35786 4.82632 4.21049 4.61579 4.21049 4.17368V3.14211C4.21049 2.80526 4.25259 2.55263 4.35786 2.40526C4.46312 2.2579 4.65259 2.11053 4.94733 1.96316C5.68417 1.58421 6.56838 1.26842 7.59996 1.01579C8.63154 0.742106 9.72628 0.61579 10.8842 0.61579C13.3894 0.61579 15.221 1.18421 16.4 2.32105C17.5579 3.45789 18.1473 5.18421 18.1473 7.5V14.3211H18.1894ZM9.64207 17.5211C10.3368 17.5211 11.0526 17.3947 11.8105 17.1421C12.5684 16.8895 13.2421 16.4263 13.8105 15.7947C14.1473 15.3947 14.4 14.9526 14.5263 14.4474C14.6526 13.9421 14.7368 13.3316 14.7368 12.6158V11.7316C14.1263 11.5842 13.4736 11.4579 12.8 11.3737C12.1263 11.2895 11.4736 11.2474 10.821 11.2474C9.41049 11.2474 8.37891 11.5211 7.68417 12.0895C6.98944 12.6579 6.65259 13.4579 6.65259 14.5105C6.65259 15.5 6.90523 16.2368 7.43154 16.7421C7.9368 17.2684 8.67365 17.5211 9.64207 17.5211ZM26.5473 19.7947C26.1684 19.7947 25.9158 19.7316 25.7473 19.5842C25.5789 19.4579 25.4315 19.1632 25.3052 18.7632L20.3579 2.48947C20.2315 2.06842 20.1684 1.79474 20.1684 1.64737C20.1684 1.31053 20.3368 1.12105 20.6736 1.12105H22.7368C23.1368 1.12105 23.4105 1.18421 23.5579 1.33158C23.7263 1.4579 23.8526 1.75263 23.9789 2.15263L27.5158 16.0895L30.8 2.15263C30.9052 1.73158 31.0315 1.4579 31.2 1.33158C31.3684 1.20526 31.6631 1.12105 32.0421 1.12105H33.7263C34.1263 1.12105 34.4 1.18421 34.5684 1.33158C34.7368 1.4579 34.8842 1.75263 34.9684 2.15263L38.2947 16.2579L41.9368 2.15263C42.0631 1.73158 42.2105 1.4579 42.3579 1.33158C42.5263 1.20526 42.8 1.12105 43.1789 1.12105H45.1368C45.4736 1.12105 45.6631 1.28947 45.6631 1.64737C45.6631 1.75263 45.6421 1.8579 45.621 1.98421C45.6 2.11053 45.5579 2.27895 45.4736 2.51053L40.4 18.7842C40.2736 19.2053 40.1263 19.4789 39.9579 19.6053C39.7894 19.7316 39.5158 19.8158 39.1579 19.8158H37.3473C36.9473 19.8158 36.6736 19.7526 36.5052 19.6053C36.3368 19.4579 36.1894 19.1842 36.1052 18.7632L32.8421 5.18421L29.6 18.7421C29.4947 19.1632 29.3684 19.4368 29.2 19.5842C29.0315 19.7316 28.7368 19.7947 28.3579 19.7947H26.5473ZM53.6 20.3632C52.5052 20.3632 51.4105 20.2368 50.3579 19.9842C49.3052 19.7316 48.4842 19.4579 47.9368 19.1421C47.6 18.9526 47.3684 18.7421 47.2842 18.5526C47.2 18.3632 47.1579 18.1526 47.1579 17.9632V16.8895C47.1579 16.4474 47.3263 16.2368 47.6421 16.2368C47.7684 16.2368 47.8947 16.2579 48.021 16.3C48.1473 16.3421 48.3368 16.4263 48.5473 16.5105C49.2631 16.8263 50.0421 17.0789 50.8631 17.2474C51.7052 17.4158 52.5263 17.5 53.3684 17.5C54.6947 17.5 55.7263 17.2684 56.4421 16.8053C57.1579 16.3421 57.5368 15.6684 57.5368 14.8053C57.5368 14.2158 57.3473 13.7316 56.9684 13.3316C56.5894 12.9316 55.8736 12.5737 54.8421 12.2368L51.7894 11.2895C50.2526 10.8053 49.1158 10.0895 48.421 9.14211C47.7263 8.21579 47.3684 7.18421 47.3684 6.08947C47.3684 5.20526 47.5579 4.42632 47.9368 3.75263C48.3158 3.07895 48.821 2.48947 49.4526 2.02632C50.0842 1.54211 50.8 1.18421 51.6421 0.931579C52.4842 0.678948 53.3684 0.573685 54.2947 0.573685C54.7579 0.573685 55.2421 0.594737 55.7052 0.657895C56.1894 0.721053 56.6315 0.805264 57.0736 0.889474C57.4947 0.994737 57.8947 1.1 58.2736 1.22632C58.6526 1.35263 58.9473 1.47895 59.1579 1.60526C59.4526 1.77368 59.6631 1.94211 59.7894 2.13158C59.9158 2.3 59.9789 2.53158 59.9789 2.82632V3.81579C59.9789 4.25789 59.8105 4.48947 59.4947 4.48947C59.3263 4.48947 59.0526 4.40526 58.6947 4.23684C57.4947 3.68947 56.1473 3.41579 54.6526 3.41579C53.4526 3.41579 52.5052 3.60526 51.8526 4.00526C51.2 4.40526 50.8631 5.01579 50.8631 5.87895C50.8631 6.46842 51.0736 6.97368 51.4947 7.37368C51.9158 7.77368 52.6947 8.17368 53.8105 8.53158L56.8 9.47895C58.3157 9.96316 59.4105 10.6368 60.0631 11.5C60.7157 12.3632 61.0315 13.3526 61.0315 14.4474C61.0315 15.3526 60.8421 16.1737 60.4842 16.8895C60.1052 17.6053 59.6 18.2368 58.9473 18.7421C58.2947 19.2684 57.5158 19.6474 56.6105 19.9211C55.6631 20.2158 54.6736 20.3632 53.6 20.3632Z" fill="#252F3E"/>
<path fill-rule="evenodd" clip-rule="evenodd" d="M57.5789 30.5947C50.6526 35.7105 40.5895 38.4263 31.9368 38.4263C19.8105 38.4263 8.88419 33.9421 0.63156 26.4895C-0.0210717 25.9 0.568402 25.1 1.34735 25.5632C10.2737 30.7421 21.2842 33.8789 32.6737 33.8789C40.3579 33.8789 48.8 32.279 56.5684 28.9947C57.7263 28.4684 58.7158 29.7526 57.5789 30.5947Z" fill="#FF9900"/>
<path fill-rule="evenodd" clip-rule="evenodd" d="M60.4631 27.3105C59.5789 26.1737 54.6105 26.7632 52.3579 27.0368C51.6842 27.1211 51.5789 26.5316 52.1894 26.0895C56.1473 23.3105 62.6526 24.1105 63.4105 25.0368C64.1684 25.9842 63.2 32.4895 59.4947 35.6053C58.9263 36.0895 58.3789 35.8368 58.6315 35.2053C59.4736 33.1211 61.3473 28.4263 60.4631 27.3105Z" fill="#FF9900"/>
</g>
<defs>
<clipPath id="clip0_5_92">
<rect width="64" height="38.3158" fill="white" transform="translate(0 0.342102)"/>
</clipPath>
</defs>
</svg>
