<svg width="64" height="45" viewBox="0 0 64 45" fill="none" xmlns="http://www.w3.org/2000/svg">
<g clip-path="url(#clip0_5_113)">
<path d="M15.3871 40.3637H12.9174C12.8296 36.1951 12.5891 32.2762 12.1968 28.6047H12.1752L8.41589 40.3637H6.53569L2.79808 28.6047H2.77641C2.49934 32.1302 2.32489 36.0503 2.25192 40.3637H0C0.144807 35.1176 0.509674 30.1998 1.09232 25.6094H4.15265L7.71466 36.4505H7.73633L11.32 25.6094H14.2481C14.8889 30.9866 15.2686 35.9055 15.3849 40.3637M26.096 29.4781C25.0903 34.934 23.7643 38.8985 22.1178 41.3739C20.8351 43.2792 19.4292 44.2324 17.899 44.2324C17.4908 44.2324 16.988 44.1093 16.3905 43.8653V42.5495C16.6824 42.5916 17.0245 42.6156 17.4179 42.6156C18.1328 42.6156 18.7074 42.4195 19.1453 42.025C19.6698 41.5449 19.9309 41.0056 19.9309 40.4081C19.9309 39.9988 19.7268 39.1619 19.3186 37.894L16.6083 29.4781H19.0347L20.9799 35.772C21.4166 37.2007 21.599 38.1996 21.526 38.7674C22.5898 35.9271 23.3333 32.8292 23.7563 29.4769H26.0949L26.096 29.4781Z" fill="#5D87A1"/>
<path d="M58.9683 40.3637H51.9537V25.6094H54.3139V38.5473H58.9694V40.3637H58.9683ZM50.1168 40.7206L47.4042 39.382C47.6448 39.1847 47.8751 38.9703 48.0815 38.7229C49.2343 37.3683 49.8089 35.3661 49.8089 32.7129C49.8089 27.8316 47.8934 25.3893 44.0611 25.3893C42.1821 25.3893 40.7158 26.0084 39.6679 27.2478C38.5163 28.6036 37.9405 30.5989 37.9405 33.2374C37.9405 35.8758 38.4502 37.7332 39.4695 38.9407C40.4022 40.0342 41.8092 40.5815 43.6894 40.5815C44.3907 40.5815 45.0349 40.4959 45.6209 40.3226L49.1522 42.3784L50.1157 40.7206H50.1168ZM41.3303 37.4117C40.7329 36.4505 40.4341 34.9078 40.4341 32.779C40.4341 29.0642 41.5629 27.2045 43.8217 27.2045C45.003 27.2045 45.8684 27.6492 46.4214 28.5374C47.0177 29.4998 47.3176 31.0288 47.3176 33.1279C47.3176 36.8735 46.1876 38.7469 43.93 38.7469C42.7488 38.7469 41.8833 38.3045 41.3292 37.4128M36.9132 36.2749C36.9132 37.5257 36.4537 38.553 35.5369 39.3569C34.6191 40.1573 33.3876 40.5587 31.8449 40.5587C30.4014 40.5587 29.0024 40.098 27.649 39.1801L28.2829 37.9134C29.4482 38.4972 30.5029 38.7868 31.4504 38.7868C32.3398 38.7868 33.0342 38.5895 33.5381 38.1984C34.0421 37.8062 34.342 37.2555 34.342 36.5599C34.342 35.6831 33.7308 34.934 32.6089 34.3069C31.5747 33.7391 29.5064 32.5521 29.5064 32.5521C28.3855 31.7346 27.8245 30.8577 27.8245 29.4131C27.8245 28.217 28.243 27.2524 29.0811 26.517C29.9191 25.7792 31.0012 25.4121 32.3272 25.4121C33.6533 25.4121 34.9417 25.7792 36.0637 26.5056L35.4947 27.7735C34.5358 27.3664 33.5883 27.1623 32.6545 27.1623C31.8985 27.1623 31.3136 27.3436 30.9077 27.7096C30.4983 28.0734 30.2464 28.5386 30.2464 29.1098C30.2464 29.9821 30.8701 30.7403 32.0228 31.3811C33.0707 31.9501 35.1903 33.1576 35.1903 33.1576C36.3396 33.9728 36.9143 34.8416 36.9143 36.276" fill="#F8981D"/>
<path d="M61.9305 20.6677C60.5041 20.6312 59.3993 20.7749 58.4723 21.1671C58.2043 21.2743 57.779 21.2743 57.7414 21.6118C57.8862 21.7554 57.9022 21.9858 58.0287 22.183C58.242 22.5399 58.6148 23.0188 58.9557 23.2696C59.3297 23.5558 59.7048 23.8398 60.0982 24.0895C60.7915 24.5182 61.5771 24.7679 62.2532 25.1955C62.6466 25.444 63.0377 25.7656 63.4322 26.0335C63.626 26.176 63.7503 26.4075 64.0012 26.4964V26.4417C63.8757 26.2809 63.8392 26.0495 63.7161 25.8705L63.1802 25.354C62.6625 24.6596 62.0206 24.053 61.3262 23.5547C60.755 23.1613 59.5076 22.6266 59.2761 21.9698L59.2396 21.9333C59.6319 21.8968 60.0971 21.7543 60.4699 21.6448C61.0765 21.4852 61.6295 21.5217 62.2521 21.3609C62.5383 21.2891 62.8222 21.2002 63.1095 21.1112V20.9505C62.7868 20.6289 62.5565 20.2025 62.2179 19.8992C61.3103 19.1147 60.3103 18.3485 59.2761 17.7066C58.7231 17.3497 58.0105 17.1194 57.421 16.8149C57.2089 16.7077 56.8509 16.6541 56.7255 16.4763C56.4062 16.084 56.2261 15.5675 55.9935 15.1035C55.4781 14.124 54.9775 13.0363 54.5328 12.0009C54.2113 11.3066 54.0152 10.6122 53.623 9.96909C51.7861 6.93841 49.7907 5.10382 46.7236 3.30228C46.0645 2.92715 45.28 2.76753 44.4431 2.57027L43.1057 2.49958C42.8206 2.37415 42.5344 2.03551 42.2859 1.87474C41.2688 1.23394 38.6486 -0.157114 37.9006 1.67862C37.4183 2.83822 38.6132 3.97957 39.0237 4.56792C39.327 4.97611 39.7192 5.44132 39.9313 5.90538C40.0567 6.20868 40.0921 6.53022 40.2175 6.85062C40.5026 7.63508 40.7694 8.50848 41.1445 9.2405C41.3406 9.61335 41.5538 10.0056 41.8035 10.3442C41.9472 10.5415 42.1958 10.6293 42.2505 10.9508C42.0019 11.3054 41.9826 11.8413 41.84 12.2871C41.1992 14.3019 41.4489 16.7967 42.3588 18.2767C42.6427 18.7225 43.3223 19.7031 44.2299 19.3279C45.0338 19.0075 44.8559 17.9916 45.0862 17.1C45.1387 16.8845 45.1045 16.7431 45.2116 16.6017V16.637C45.4602 17.1353 45.711 17.6165 45.9414 18.1159C46.4944 18.9882 47.4578 19.898 48.2594 20.5024C48.687 20.825 49.0245 21.3769 49.5593 21.5742V21.5206H49.5239C49.4156 21.3609 49.2571 21.2891 49.1146 21.1648C48.793 20.8433 48.4373 20.451 48.1876 20.0953C47.4407 19.0965 46.7794 17.9905 46.1922 16.8503C45.9049 16.2973 45.6575 15.6918 45.426 15.1388C45.3177 14.9256 45.3177 14.604 45.1387 14.4969C44.8707 14.8891 44.4796 15.2277 44.2835 15.7078C43.9437 16.4751 43.9084 17.4204 43.7829 18.4021L43.7123 18.4363C43.1444 18.2938 42.9472 17.7066 42.7317 17.2071C42.1981 15.9404 42.108 13.9074 42.5709 12.4468C42.6952 12.0728 43.2322 10.8961 43.0179 10.5403C42.9107 10.1994 42.5538 10.0044 42.3577 9.73649C42.1274 9.39899 41.8754 8.97141 41.7157 8.59628C41.2882 7.5986 41.0727 6.49259 40.612 5.49491C40.3965 5.0297 40.0237 4.54853 39.7204 4.12095C39.3806 3.63979 39.0066 3.30114 38.7387 2.73104C38.6497 2.53492 38.5254 2.21452 38.668 2.0013C38.7033 1.85764 38.7751 1.80519 38.9177 1.7687C39.1491 1.57372 39.8082 1.82115 40.0396 1.92947C40.701 2.19628 41.2528 2.44599 41.8047 2.81997C42.0544 2.99899 42.3223 3.33763 42.6416 3.42657H43.0167C43.5857 3.55085 44.2276 3.46077 44.7635 3.62268C45.7076 3.92598 46.5639 4.3718 47.3313 4.85183C49.6664 6.33296 51.5922 8.43665 52.8921 10.9497C53.1053 11.359 53.1965 11.7341 53.3904 12.1617C53.7655 13.0363 54.2307 13.9279 54.6024 14.7831C54.9775 15.62 55.3344 16.4751 55.8692 17.1718C56.136 17.5458 57.2078 17.7419 57.6878 17.938C58.0436 18.0977 58.5966 18.2402 58.9181 18.4363C59.5247 18.8103 60.129 19.239 60.6991 19.6495C60.983 19.8627 61.8758 20.3085 61.9283 20.6654M43.7465 5.17565C43.5002 5.17337 43.255 5.20301 43.0167 5.26573V5.30107H43.0509C43.1946 5.58612 43.4443 5.78338 43.6222 6.03195C43.7658 6.31814 43.8901 6.60091 44.0315 6.8871L44.0657 6.85176C44.3177 6.67389 44.442 6.38883 44.442 5.96011C44.3337 5.83469 44.3166 5.71155 44.2265 5.58612C44.1216 5.40711 43.8901 5.31932 43.7465 5.17565Z" fill="#5D87A1"/>
</g>
<defs>
<clipPath id="clip0_5_113">
<rect width="64" height="43.4648" fill="white" transform="translate(0 0.767593)"/>
</clipPath>
</defs>
</svg>
